<svg width="125" height="125" viewBox="0 0 125 125" fill="none" xmlns="http://www.w3.org/2000/svg">
<path d="M64.3478 91.3647V72.9207L64.0494 72.8249C63.4862 73.5965 62.4049 74.3174 60.8449 74.9932C59.6482 75.44 58.5488 76.1131 57.6066 76.9756C55.1005 79.6169 55.4666 90.0075 56.3226 93.3077C57.5165 98.0947 63.3172 95.7124 64.3366 91.376M86.0132 94.2707C87.5451 94.2707 88.6095 93.3189 89.2177 91.4041C89.8608 89.1816 90.1646 86.8748 90.1188 84.5615H91.4704C91.4704 90.2459 90.4567 94.0004 88.4293 95.8251C84.5434 99.3111 81.9358 99.9982 76.794 99.9982C74.1739 100.042 71.6006 99.3003 69.4052 97.8694C68.3884 97.2444 67.5144 96.4124 66.8401 95.4276C66.1658 94.4428 65.7061 93.3272 65.4911 92.1532C64.5432 94.6766 62.7068 96.7672 60.3268 98.0327C57.9107 99.3337 54.7682 99.9982 50.9105 99.9982C46.7805 99.9982 43.4315 98.8719 40.8634 96.6191C38.2897 94.3664 37 91.2295 37 87.2197C37 83.9984 37.8053 81.4021 39.416 79.431C42.9697 75.0945 46.8105 75.134 52.065 74.6496C54.649 74.457 57.2161 74.0806 59.7467 73.5233C60.9845 73.2487 62.1733 72.7872 63.2722 72.1548C63.978 71.6704 64.3309 70.8482 64.3309 69.6881L64.2352 60.8856C64.2352 58.3738 63.9142 56.5548 63.2891 55.4622C61.7234 52.804 54.7682 53.3616 54.7682 56.9265C54.7682 57.6304 55.4609 58.5203 56.8294 59.5959C58.198 60.6716 58.8907 62.2541 58.8907 64.3942C58.8907 74.0977 39.3203 74.8974 39.3203 65.4699C39.3203 61.4676 41.5617 58.265 46.0446 55.8621C50.55 53.4629 55.8664 52.2746 62.0613 52.2746C67.0568 52.2163 71.9965 53.3292 76.4843 55.5242C80.8996 57.6642 83.0847 61.0039 83.0847 65.5487V87.7604C83.0191 89.3683 83.2092 90.9765 83.6479 92.5249C83.7578 93.0561 84.06 93.5281 84.4966 93.8503C84.9331 94.1725 85.4732 94.3222 86.0132 94.2707Z" fill="#41431A"/>
<path d="M72.7167 28.0355C71.9339 28.3227 70.8075 28.7451 69.5573 29.2914C71.3482 30.7613 73.9219 34.6022 73.9219 34.6022C72.5477 32.8563 70.1768 31.4033 68.2901 29.8827C66.5021 30.7207 64.791 31.7139 63.1765 32.8507C63.8073 33.3744 65.1082 35.5539 65.1082 35.5539C64.545 34.9344 62.8161 34.1854 62.1403 33.6391C61.4644 34.2023 59.4764 35.0245 58.9133 35.6384C59.5716 34.646 60.3039 33.7047 61.104 32.8225C59.4893 31.686 57.7782 30.6929 55.9904 29.8546C54.0925 31.3752 51.7834 32.9464 50.4093 34.6923C50.4093 34.6923 52.9154 30.75 54.7007 29.2632C53.7151 28.8296 52.8197 28.4748 52.0876 28.1988C48.0327 30.9528 45.4646 33.8475 45.4646 37.2209C45.4646 43.0104 53.1238 42.3796 62.5683 42.3796C72.0127 42.3796 79.6494 43.0216 79.6494 37.2209C79.6494 33.7687 76.9236 30.7613 72.7167 28.0355ZM71.3031 27.202C68.9372 25.9281 66.3252 25.1771 63.6439 25C64.9899 25.8729 66.6963 27.0387 68.4422 28.3791C69.501 27.9116 70.4809 27.5118 71.3031 27.202ZM62.1234 32.0397C63.7095 30.884 65.3943 29.8701 67.1582 29.0098C65.2434 27.5568 63.4018 26.729 62.1234 25.918C60.8393 26.729 58.9808 27.5568 57.0886 29.0098C58.8518 29.8714 60.5364 30.8852 62.1234 32.0397ZM55.8045 28.3791C54.9485 27.9905 54.1431 27.6526 53.4335 27.371C55.6052 26.1539 57.9954 25.377 60.4676 25.0845C59.1442 25.9461 57.4884 27.0838 55.8045 28.3791Z" fill="#41431A"/>
<path fill-rule="evenodd" clip-rule="evenodd" d="M45.4646 50.1683H79.6494V43.5228H77.1433C74.1359 44.9533 68.7238 44.7111 62.5457 44.7111C56.3677 44.7111 50.9499 44.9815 47.9426 43.551H45.4646V50.1965" fill="#CDAD84"/>
<circle cx="62.5" cy="62.5" r="60.5" stroke="#CDAD84" stroke-width="4"/>
</svg>
