<svg width="264" height="50" viewBox="0 0 264 50" fill="none" xmlns="http://www.w3.org/2000/svg">
<path d="M253.405 16.3687C253.456 14.8585 253.177 13.3554 252.589 11.9637C252.393 11.4486 252.043 11.0062 251.588 10.6964C251.132 10.3866 250.592 10.2244 250.041 10.2317C248.985 10.2317 248.174 10.8374 247.613 12.0388C247.024 13.4042 246.74 14.8821 246.782 16.3687V26.9608C246.731 28.4693 247.01 29.9709 247.598 31.3608C248.144 32.5172 248.975 33.0928 250.101 33.0928C251.227 33.0928 252.013 32.5021 252.574 31.3108C253.171 29.9405 253.459 28.4551 253.415 26.9608V16.3687M263.451 21.6648C263.477 23.3272 263.131 24.9745 262.438 26.4859C261.746 27.9973 260.723 29.3346 259.447 30.3997C256.87 32.7002 253.525 33.9506 250.071 33.9037C246.277 33.9037 243.106 32.7357 240.56 30.3997C239.323 29.3109 238.339 27.9651 237.675 26.4564C237.012 24.9477 236.686 23.3124 236.721 21.6648C236.688 20.0129 237.018 18.3741 237.69 16.8645C238.361 15.3549 239.356 14.0115 240.605 12.9298C243.244 10.6857 246.595 9.45349 250.058 9.45349C253.522 9.45349 256.873 10.6857 259.512 12.9298C260.775 14.0022 261.785 15.3424 262.466 16.8533C263.147 18.3641 263.484 20.0077 263.451 21.6648Z" fill="#41431A"/>
<path d="M216.748 18.1157C217.308 16.8688 218.211 15.8065 219.351 15.0522C222.304 13.13 227.42 13.8658 230.188 15.8181C231.945 17.0545 232.831 18.6463 232.831 20.5935V31.7263C232.831 32.7725 232.781 35.5957 233.177 36.3516C233.572 37.1074 235.214 37.0824 235.995 37.1174V37.9133H220.662V37.1174C221.343 37.0674 222.589 37.1174 222.925 36.4767C223.315 35.6858 223.245 32.8125 223.27 31.7263V21.6297C223.235 20.2031 223.375 17.7353 222.534 16.624C221.533 15.3225 218.98 15.4477 218.089 16.8192C217.628 17.5197 217.24 18.2662 216.933 19.0468V31.7263C216.958 32.7975 216.893 35.7308 217.258 36.5017C217.564 37.1374 218.88 37.0674 219.541 37.1174V37.9133H204.168V37.1174C204.944 37.0874 206.641 37.1174 207.037 36.3766C207.432 35.6357 207.362 32.7524 207.382 31.7263V7.28332C207.382 6.32222 207.472 4.08467 206.917 3.39888C206.296 2.63301 204.198 2.67806 203.227 2.628V1.8371H216.933V13.5655C216.933 14.6501 216.918 15.5661 216.888 16.3136C216.858 17.0612 216.808 17.6619 216.738 18.1157" fill="#41431A"/>
<path d="M203.673 37.9133H187.574V37.1174C188.36 37.0874 190.112 37.1174 190.513 36.3766C190.708 36.0162 190.808 35.2203 190.808 34.0039L190.858 31.7263V7.28332C190.828 6.11198 190.858 4.57022 190.513 3.46896C190.232 2.64302 187.86 2.67806 187.049 2.628V1.8371H200.409V31.7263L200.454 34.0039C200.395 34.7987 200.497 35.5973 200.754 36.3516C201.15 37.1174 202.877 37.0874 203.673 37.1174V37.9133Z" fill="#41431A"/>
<path d="M173.884 34.0039V24.5531L173.734 24.503C173.291 25.0063 172.728 25.3887 172.097 25.6143C171.483 25.8376 170.919 26.1775 170.435 26.6154C169.153 27.967 169.339 33.2881 169.779 34.975C170.22 36.6619 171.932 36.6719 172.978 35.5707C173.42 35.1373 173.734 34.5898 173.884 33.9889M184.992 35.4906C185.777 35.4906 186.323 34.99 186.633 34.0239C186.964 32.886 187.121 31.7047 187.099 30.5199H187.79C187.79 33.4265 187.269 35.3454 186.228 36.2765C184.226 38.0635 182.904 38.4089 180.266 38.4089C178.925 38.4314 177.607 38.0532 176.482 37.3227C175.961 37.0026 175.514 36.5764 175.169 36.0719C174.824 35.5673 174.589 34.9957 174.479 34.3943C173.993 35.6851 173.051 36.7533 171.831 37.3978C169.694 38.5441 166.19 38.7343 163.897 37.8883C161.475 36.9923 159.893 34.9449 159.893 31.8814C159.893 29.4787 161.179 26.7005 163.652 26.0348C166.125 25.369 168.993 25.5342 171.546 24.8734C172.687 24.5681 173.894 24.3178 173.894 22.9112L173.844 18.406C173.903 17.4532 173.732 16.5 173.343 15.6279C172.542 14.2663 168.978 14.5566 168.983 16.3787C168.983 16.7441 169.334 17.1947 170.034 17.7503C170.394 18.0458 170.678 18.4232 170.861 18.8508C171.045 19.2784 171.124 19.7438 171.091 20.2081C171.091 25.1187 161.079 25.6193 161.079 20.7587C161.079 18.7064 162.227 17.0645 164.523 15.8331C167.065 14.551 169.886 13.9198 172.732 13.996C175.292 13.966 177.822 14.5369 180.121 15.6629C182.374 16.7742 183.495 18.4811 183.495 20.8088V32.1568C183.485 33.268 183.42 35.4856 184.992 35.4856V35.4906Z" fill="#41431A"/>
<path d="M142.067 16.3387H138.704V15.0172C139.953 14.6544 141.136 14.0933 142.208 13.3553C143.461 12.5267 144.634 11.5833 145.712 10.537C146.731 9.57214 147.663 8.5203 148.5 7.39344C149.152 6.52357 149.725 5.59717 150.212 4.62527H151.608V14.4565H158.046L157.355 16.3387H151.618V29.794L151.713 32.2969C151.713 33.7135 152.029 34.7998 152.65 35.5106C152.98 35.8975 153.399 36.199 153.871 36.3895C154.343 36.5799 154.854 36.6537 155.36 36.6046C155.867 36.5554 156.354 36.3848 156.781 36.1072C157.207 35.8296 157.56 35.4533 157.81 35.01C158.4 33.9102 158.699 32.6785 158.681 31.4309H159.377C159.404 33.1921 158.83 34.9099 157.75 36.3015C156.669 37.7031 154.333 38.4039 150.742 38.4039C148.585 38.4443 146.466 37.8242 144.67 36.6269C143.833 36.0942 143.149 35.3523 142.687 34.4743C142.224 33.5964 141.998 32.6129 142.032 31.6211V16.3387" fill="#41431A"/>
<path d="M117.274 24.0575C117.054 21.6097 117.474 18.5162 116.443 16.3136C116.229 15.8219 115.869 15.4081 115.411 15.1286C114.953 14.8492 114.42 14.7176 113.885 14.7519C113.407 14.7312 112.935 14.8665 112.541 15.1374C112.146 15.4082 111.85 15.8 111.698 16.2536C111.199 17.748 110.911 19.3048 110.842 20.8789L110.742 24.0475H117.274M126.034 30.4798C125.194 32.8372 123.634 34.8705 121.574 36.2915C119.046 38.0435 116.243 38.5441 113.239 38.3789C109.829 38.192 106.992 37.1208 104.73 35.1652C102.217 33.0027 100.96 30.0093 100.96 26.1849C100.917 24.5233 101.243 22.8728 101.917 21.3532C102.591 19.8336 103.594 18.4832 104.855 17.3999C107.424 15.1171 110.76 13.8888 114.196 13.961C121.018 13.961 125.949 18.0256 125.949 25.0436H110.742C110.743 26.2618 110.835 27.4782 111.017 28.6828C111.362 31.0355 112.253 33.5784 114.206 35.0651C116.468 36.787 120.518 36.3716 122.52 34.4243C123.74 33.2241 124.668 31.7599 125.233 30.1445L126.034 30.4798Z" fill="#41431A"/>
<path d="M77.043 20.8889C77.0965 19.3785 76.8179 17.8748 76.227 16.4838C76.0323 15.9679 75.6831 15.5248 75.2271 15.2148C74.7711 14.9048 74.2305 14.7431 73.6791 14.7518C72.6246 14.7518 71.817 15.3542 71.2564 16.5589C70.6636 17.9236 70.3766 19.4015 70.4154 20.8889V31.476C70.3614 32.9863 70.64 34.4901 71.2313 35.881C71.7753 37.0357 72.6096 37.613 73.7342 37.613C74.8254 37.613 75.6464 37.0223 76.207 35.8309C76.8051 34.4591 77.0923 32.9719 77.048 31.476V20.8889M87.0995 26.1849C87.1267 27.8475 86.7811 29.4951 86.0882 31.0067C85.3952 32.5183 84.3724 33.8554 83.0949 34.9199C80.5193 37.2217 77.1731 38.4722 73.7192 38.4239C69.9248 38.4239 66.7546 37.2559 64.2083 34.9199C62.9719 33.8308 61.9881 32.4849 61.3259 30.9761C60.6636 29.4674 60.3387 27.8322 60.3739 26.1849C60.3408 24.5331 60.6716 22.8942 61.3429 21.3846C62.0143 19.875 63.0096 18.5317 64.2584 17.4499C66.8962 15.2062 70.2462 13.9742 73.7092 13.9742C77.1721 13.9742 80.5222 15.2062 83.16 17.4499C84.4237 18.5223 85.4328 19.8626 86.1142 21.3734C86.7956 22.8843 87.1321 24.5278 87.0995 26.1849Z" fill="#41431A"/>
<path d="M46.3179 34.0039V24.5531L46.1677 24.503C45.7301 25.0027 45.1742 25.3848 44.5509 25.6143C43.9387 25.837 43.3759 26.1771 42.894 26.6154C41.6075 27.967 41.7977 33.2881 42.2332 34.975C42.8489 37.4278 45.8173 36.2064 46.3429 33.9738M57.4506 35.4756C58.2315 35.4756 58.7771 34.975 59.0925 34.0089C59.4214 32.8707 59.5766 31.6894 59.553 30.5049H60.2438C60.2438 33.4115 59.7249 35.3304 58.687 36.2615C56.6847 38.0485 55.3582 38.3939 52.7252 38.3939C51.3836 38.4179 50.0655 38.0396 48.9409 37.3077C48.4203 36.9874 47.973 36.5611 47.6281 36.0566C47.2831 35.5521 47.0482 34.9806 46.9386 34.3793C46.4541 35.6713 45.5117 36.7402 44.2906 37.3827C42.7912 38.1099 41.135 38.4539 39.4701 38.3839C37.5898 38.4807 35.7415 37.8699 34.2891 36.6719C32.9726 35.5106 32.2868 33.9138 32.2868 31.8564C32.2141 30.4176 32.652 28.9993 33.5233 27.8518C35.3453 25.6293 37.3126 25.6493 40.0307 25.404C41.3542 25.3083 42.6691 25.1176 43.9652 24.8334C44.5995 24.6926 45.2088 24.4563 45.7723 24.1326C45.9621 23.9853 46.1116 23.7924 46.207 23.5719C46.3024 23.3514 46.3405 23.1103 46.3179 22.8712L46.2678 18.366C46.3274 17.4131 46.1556 16.46 45.7673 15.5878C44.9613 14.2263 41.4023 14.5166 41.4023 16.3387C41.4023 16.7041 41.7577 17.1546 42.4585 17.7103C42.8252 18.0026 43.1159 18.3792 43.3058 18.808C43.4958 19.2367 43.5795 19.705 43.5497 20.1731C43.5497 25.1438 33.5383 25.5542 33.5383 20.7237C33.5383 18.6714 34.6879 17.0295 36.9872 15.7981C39.516 14.5231 42.3204 13.892 45.1516 13.961C47.7175 13.9286 50.2552 14.4995 52.56 15.6279C54.8076 16.7391 55.9289 18.4461 55.9289 20.7738V32.1568C55.897 32.9802 55.9984 33.8034 56.2292 34.5946C56.2846 34.864 56.4372 35.1036 56.6577 35.2679C56.8783 35.4322 57.1516 35.5096 57.4256 35.4856L57.4506 35.4756Z" fill="#41431A"/>
<path d="M13.7057 34.4995C13.7497 34.872 13.8708 35.2313 14.0613 35.5544C14.2517 35.8776 14.5074 36.1576 14.8119 36.3766C15.4023 36.8108 16.1164 37.0442 16.8493 37.0424C17.3364 37.0494 17.8143 36.91 18.2213 36.6422C18.6283 36.3745 18.9455 35.9907 19.1319 35.5406C20.8238 32.2719 21.1342 20.5235 19.1569 16.8593C18.9414 16.4081 18.5986 16.0298 18.1708 15.7709C17.743 15.5121 17.2488 15.3841 16.7491 15.4026C16.3931 15.4157 16.0431 15.499 15.7193 15.6476C15.3954 15.7962 15.1041 16.0072 14.862 16.2686C14.2643 16.8228 13.874 17.5646 13.7557 18.371C13.5705 20.6236 13.5605 22.9863 13.5605 25.2489C13.5605 28.2523 13.4203 31.5311 13.7057 34.5045M0 49.3414V48.5555L1.73198 48.4554C2.68974 48.3553 3.30044 48.1501 3.56407 47.8397C4.06465 47.219 3.98455 44.8363 4.00958 43.9052L3.95953 17.8755C3.95953 16.9544 3.81937 16.3237 3.53905 15.9933C3.25873 15.6629 2.63802 15.4527 1.68192 15.3526L0.100114 15.2475V14.4565H13.4604V17.3749C13.8998 16.516 14.4917 15.7443 15.2074 15.0973C16.0183 14.3414 17.52 13.961 19.7776 13.961C21.2249 13.9129 22.6649 14.1851 23.9949 14.7579C25.3249 15.3307 26.512 16.1901 27.4714 17.2748C31.476 21.7499 31.476 30.61 27.4714 35.0901C26.5081 36.1767 25.3168 37.0372 23.9825 37.61C22.6482 38.1828 21.2038 38.4539 19.7526 38.4039C17.46 38.4039 15.9432 38.0936 15.1824 37.4678C14.5021 36.9162 13.9373 36.2358 13.5205 35.4656L13.5705 38.3839V43.0893C13.6206 44.2506 13.5705 46.7885 14.3264 47.5944C14.6718 47.9749 15.3275 48.2302 16.3637 48.3603L18.7164 48.5105V49.3014L0 49.3414Z" fill="#41431A"/>
<path fill-rule="evenodd" clip-rule="evenodd" d="M241.326 37.9134H258.846V34.5045H254.551C253.105 34.9618 251.597 35.1898 250.081 35.1802C248.507 35.1946 246.94 34.9667 245.436 34.5045H241.326V37.9134Z" fill="#CDAD84"/>
<path d="M50.6029 1.55678C50.1925 1.70195 49.6018 1.91719 48.9861 2.19751C49.8237 3.02572 50.5736 3.93827 51.2236 4.92062C50.5178 4.00458 49.3014 3.28375 48.3253 2.50286C47.4103 2.92568 46.5343 3.42819 45.7073 4.00458C46.0847 4.43181 46.42 4.89448 46.7085 5.38616C46.4181 5.0708 45.5321 4.68536 45.2068 4.38501C44.8564 4.66533 43.8402 5.09583 43.5549 5.41119C43.8832 4.9159 44.248 4.44573 44.6461 4.00458C43.8238 3.43203 42.9547 2.92969 42.0482 2.50286C41.047 3.28375 39.8707 4.08467 39.1649 5.00572C39.1649 5.00572 40.4513 3.00343 41.3624 2.22254C40.8618 2.00229 40.4013 1.82208 40.0258 1.68192C37.9585 3.07351 36.627 4.55521 36.627 6.28719C36.627 9.25558 40.5514 8.93021 45.392 8.93021C50.2325 8.93021 54.157 9.25058 54.157 6.28719C54.157 4.52017 52.7604 2.9784 50.6029 1.58181M49.8771 1.15132C48.6685 0.490386 47.3317 0.0976982 45.9576 0C46.6434 0.445509 47.5194 1.0462 48.4154 1.74199C48.956 1.50172 49.4566 1.28647 49.8771 1.12629V1.15132ZM45.1767 3.65418C45.9865 3.04572 46.8492 2.5113 47.7547 2.05735C46.9254 1.48105 46.0648 0.951293 45.1767 0.470538C44.2874 0.949018 43.4266 1.47885 42.5988 2.05735C43.5011 2.4976 44.3636 3.01512 45.1767 3.60412V3.65418ZM41.938 1.74199C41.4975 1.54176 41.0871 1.36656 40.7216 1.24142C41.8316 0.607262 43.0569 0.20056 44.3258 0.0450515C43.65 0.500572 42.799 1.06622 41.938 1.74199Z" fill="#41431A"/>
<path fill-rule="evenodd" clip-rule="evenodd" d="M36.627 12.8947H54.147V9.51086H52.8605C51.3238 10.2417 48.5456 10.1065 45.382 10.1065C42.2183 10.1065 39.4402 10.2417 37.8734 9.51086H36.627V12.9148" fill="#CDAD84"/>
<path d="M255.147 49.9671C254.418 49.9873 253.699 49.8035 253.069 49.4365C252.495 49.0891 252.036 48.5809 251.748 47.9748C251.444 47.3144 251.292 46.5944 251.302 45.8674C251.273 45.0668 251.445 44.2716 251.803 43.5548C252.136 42.9275 252.656 42.4187 253.289 42.0981C253.98 41.7531 254.745 41.5813 255.517 41.5976C256.421 41.6116 257.321 41.7258 258.2 41.9379L258.08 43.9803H256.974L256.678 42.5737C256.556 42.4782 256.414 42.41 256.263 42.3734C256.002 42.302 255.732 42.27 255.462 42.2783C255.132 42.2706 254.805 42.347 254.513 42.5002C254.22 42.6535 253.972 42.8785 253.79 43.1543C253.336 43.907 253.121 44.7798 253.174 45.6572C253.137 46.5546 253.317 47.4476 253.7 48.2602C253.839 48.5662 254.065 48.8244 254.35 49.0025C254.635 49.1806 254.966 49.2706 255.302 49.2613C255.579 49.264 255.856 49.2269 256.123 49.1512C256.334 49.0985 256.532 49.0012 256.703 48.8659V46.5132L255.542 46.4031V45.6722H258.876V46.4031L258.29 46.5032V49.4065C258.008 49.4432 257.73 49.5069 257.459 49.5967C256.994 49.7168 256.593 49.8119 256.258 49.872C255.895 49.9392 255.526 49.9711 255.157 49.9671M241.551 42.5486L240.685 42.4085V41.7027H243.188L246.452 46.6333L247.067 47.8847V42.5486L246.126 42.4085V41.7027H248.844V42.3835L247.983 42.5486V49.847H246.657L243.248 44.6611L242.482 43.2144V49.0811L243.588 49.1912V49.847H240.685V49.1912L241.551 49.0811V42.5486ZM235.309 42.5486L234.373 42.4085V41.7027H237.877V42.3835L236.911 42.5236V49.0811L237.877 49.2013V49.847H234.373V49.1912L235.309 49.0811V42.5486ZM228.011 45.6722C228.197 45.6805 228.384 45.6439 228.553 45.5656C228.723 45.4872 228.872 45.3693 228.987 45.2217C229.249 44.8237 229.372 44.3504 229.337 43.8752C229.372 43.4507 229.249 43.0283 228.992 42.6888C228.832 42.5455 228.644 42.4371 228.439 42.3707C228.235 42.3044 228.019 42.2814 227.805 42.3034C227.638 42.3023 227.471 42.3123 227.305 42.3334C227.212 42.3477 227.118 42.356 227.024 42.3584V45.6472C227.236 45.6608 227.449 45.6608 227.66 45.6472L228.011 45.6722ZM224.507 49.1762L225.373 49.0661V42.5486L224.552 42.3985V41.7027H226.138H226.599H226.984C227.365 41.6726 227.675 41.6576 227.925 41.6576C228.536 41.6375 229.146 41.7152 229.733 41.8879C230.138 41.997 230.492 42.245 230.734 42.5887C230.955 42.9618 231.063 43.3915 231.044 43.8251C231.046 44.323 230.905 44.8111 230.639 45.2317C230.369 45.6621 229.95 45.9777 229.462 46.1177C229.787 46.2524 230.065 46.4785 230.263 46.7685C230.53 47.1793 230.766 47.6093 230.969 48.0549C231.154 48.4103 231.294 48.6706 231.394 48.8258C231.453 48.9498 231.557 49.0465 231.685 49.0961L232.045 49.2063V49.852H230.183C230.063 49.852 229.943 49.7319 229.813 49.4966C229.683 49.2613 229.522 48.8859 229.312 48.3703C229.072 47.7746 228.862 47.3041 228.686 46.9687C228.577 46.7018 228.379 46.4807 228.126 46.343H226.999V49.0861L228.001 49.1962V49.852H224.497L224.507 49.1762ZM216.342 42.5486L215.466 42.4085V41.7027H221.308L221.448 43.5448H220.682L220.322 42.4585L217.954 42.3584V45.3068L219.456 45.2768L219.631 44.3757H220.337V47.0538H219.651L219.476 46.1127L217.974 46.0777V49.1712L220.627 49.0411L221.253 47.6094L222.074 47.8397L221.788 49.842H215.476V49.1912L216.342 49.0811V42.5486ZM208.468 42.4535L206.901 42.5086L206.471 44.8963H205.55L205.735 41.7277H212.808L212.938 44.8963H212.072L211.647 42.5086L210.1 42.4535V49.0811L211.632 49.1912V49.847H207.062V49.1912L208.468 49.0811V42.4535ZM199.558 43.5348L199.363 42.6838L199.153 43.5498L198.151 46.9136H200.564L199.558 43.5348ZM198.802 41.6827H200.479L203.012 49.1061L203.648 49.2163V49.872H200.414V49.1912L201.235 49.0811L200.81 47.6545H197.971L197.541 49.0911L198.432 49.1912V49.847H195.634V49.1912L196.294 49.0811L198.802 41.6827ZM190.883 49.9922C190.356 50.027 189.828 49.9455 189.335 49.7535C188.843 49.5615 188.399 49.2636 188.035 48.8809C187.331 48.0278 186.974 46.9415 187.034 45.8374C187.008 45.0676 187.181 44.3041 187.534 43.6199C187.862 43.0062 188.357 42.4978 188.961 42.1532C189.593 41.8102 190.304 41.6377 191.023 41.6526C191.335 41.652 191.646 41.6721 191.954 41.7127C192.255 41.7527 192.61 41.8028 193.016 41.8679C193.326 41.9229 193.491 41.948 193.516 41.948L193.396 44.2055H192.395L192.055 42.6387C191.935 42.5377 191.792 42.4687 191.639 42.4385C191.389 42.3831 191.134 42.3579 190.878 42.3634C190.574 42.36 190.274 42.4381 190.01 42.5894C189.746 42.7408 189.527 42.9601 189.376 43.2244C188.949 43.9862 188.753 44.8558 188.811 45.7273C188.776 46.6159 188.96 47.4994 189.346 48.3002C189.482 48.6011 189.703 48.8559 189.981 49.0337C190.259 49.2114 190.583 49.3044 190.913 49.3014C191.172 49.3119 191.431 49.2797 191.679 49.2063C191.847 49.1503 192.001 49.0581 192.13 48.9359L192.63 47.8097L193.551 47.8948L193.331 49.5967C193.177 49.6108 193.025 49.6376 192.875 49.6768L192.595 49.7469C192.305 49.832 192.029 49.892 191.779 49.9421C191.482 49.9756 191.182 49.984 190.883 49.9671V49.9922Z" fill="#CDAD84"/>
</svg>
